<svg xmlns="http://www.w3.org/2000/svg" viewBox="0 0 60 60" x="0px" y="0px">
<title>Robots - Solid - 041 - Bot</title>
<g><path d="M48,6h0A6.49,6.49,0,0,0,41.5,0h-23A6.49,6.49,0,0,0,12,6h0a6,6,0,0,0,0,12h.18a6.49,6.49,0,0,0,6.32,5H20a4.94,4.94,0,0,0-1,3v4.82l-3,1.7-2.36-1.41a7,7,0,0,0-7.71-9A1.94,1.94,0,0,0,4.4,23.41a2,2,0,0,0,.48,2.06L7.7,28.3a1,1,0,0,1,.27.92,1,1,0,0,1-.36.58,1.08,1.08,0,0,1-1.39-.16L3.47,26.88a2,2,0,0,0-2.06-.48A1.94,1.94,0,0,0,.08,28,7,7,0,0,0,7,36a6.62,6.62,0,0,0,2.43-.45l5,3A3,3,0,0,0,16,39a3.1,3.1,0,0,0,1.49-.39L19,37.73a10.91,10.91,0,0,0,2.76,6.57,10,10,0,1,0,16.42,0A11,11,0,0,0,41,37V26a4.94,4.94,0,0,0-1-3h1.5a6.49,6.49,0,0,0,6.32-5H48A6,6,0,0,0,48,6ZM38,17a5,5,0,1,1,5-5A5,5,0,0,1,38,17ZM31.77,47.86l.21,0a6.37,6.37,0,0,0,.73-.16,3.17,3.17,0,0,0,.44-.12,4,4,0,1,1-6.3,0,3.17,3.17,0,0,0,.44.12,6.37,6.37,0,0,0,.73.16l.21,0c.28,0,.57.08.85.1s.61,0,.92,0,.62,0,.92,0S31.49,47.9,31.77,47.86ZM16,12a7,7,0,1,1,7,7A7,7,0,0,1,16,12Zm.51,24.86a1,1,0,0,1-1,0l-4-2.43c.18-.15.35-.31.52-.47a6.94,6.94,0,0,0,.85-1L15,34.24a2,2,0,0,0,2,0l3.42-2,9.07-5.18a1,1,0,0,1,1.36.37,1,1,0,0,1-.38,1.37l-11,6.3Z"/><circle cx="30" cy="50" r="2"/><path d="M28,12a5,5,0,1,0-5,5A5,5,0,0,0,28,12Zm-6,0a1,1,0,1,1,.29.71A1.05,1.05,0,0,1,22,12Z"/><circle cx="38" cy="12" r="3"/></g></svg>